<svg xmlns="http://www.w3.org/2000/svg" xmlns:xlink="http://www.w3.org/1999/xlink" viewBox="48 42 260 265" width="512" height="512">
<path fill-rule="nonzero" fill="rgb(30.587769%, 30.195618%, 30.587769%)" fill-opacity="1" d="M 231.214844 150.148438 C 231.214844 150.148438 209.105469 126.03125 192.777344 122.511719 C 176.449219 118.996094 152.078125 127.789062 152.078125 127.789062 C 152.078125 127.789062 133.828125 147.132812 133.28125 148.136719 C 132.734375 149.144531 125.195312 166.730469 125.195312 169.996094 C 125.195312 173.261719 132.824219 194.859375 133.28125 196.621094 C 133.738281 198.386719 150.066406 214.964844 153.082031 217.730469 C 156.097656 220.492188 175.050781 226.773438 177.632812 227.277344 C 180.214844 227.78125 202.324219 220.820312 203.832031 220.820312 C 205.339844 220.820312 215.136719 213.710938 218.402344 213.710938 C 221.667969 213.710938 261.113281 215.335938 261.113281 215.335938 C 261.113281 215.335938 253.324219 235.566406 251.566406 236.574219 C 249.808594 237.578125 192.523438 277.023438 162 265.214844 C 131.476562 253.40625 95.234375 222.136719 94.261719 219.679688 C 93.289062 217.226562 82.964844 186.328125 84.984375 162.710938 C 87.007812 139.09375 96.304688 103.167969 130.21875 92.617188 C 164.136719 82.066406 173.683594 72.214844 199.058594 79.402344 C 224.433594 86.585938 250.308594 112.089844 252.820312 114.539062 C 255.332031 116.984375 268.902344 145.753906 269.65625 145.753906 C 270.410156 145.753906 231.214844 150.148438 231.214844 150.148438 "/>
<path fill-rule="nonzero" fill="rgb(63.922119%, 72.549438%, 44.313049%)" fill-opacity="1" d="M 259 211.824219 C 257.507812 214.925781 255.847656 217.925781 254.003906 220.820312 C 238.285156 245.769531 210.480469 262.355469 178.859375 262.355469 C 152.613281 262.355469 128.988281 250.921875 112.710938 232.761719 C 110.375 230.152344 108.183594 227.414062 106.183594 224.546875 C 106.15625 224.546875 106.15625 224.53125 106.15625 224.519531 C 104.09375 221.597656 102.199219 218.535156 100.496094 215.367188 C 98.769531 212.148438 97.238281 208.800781 95.914062 205.359375 C 95.890625 205.296875 95.863281 205.230469 95.835938 205.152344 C 94.460938 201.582031 93.320312 197.910156 92.4375 194.132812 C 92.410156 194.066406 92.398438 194.015625 92.386719 193.949219 C 91.398438 189.808594 90.710938 185.550781 90.347656 181.203125 C 90.125 178.671875 90.007812 176.101562 90.007812 173.519531 C 90.007812 124.53125 129.871094 84.683594 178.859375 84.683594 C 218.152344 84.683594 251.574219 110.316406 263.257812 145.753906 C 264.425781 149.3125 265.386719 152.984375 266.101562 156.722656 L 277.976562 156.722656 C 277.355469 152.984375 276.523438 149.324219 275.484375 145.753906 C 263.453125 103.738281 224.746094 73 178.859375 73 C 123.34375 73 78.328125 118.003906 78.328125 173.519531 C 78.328125 179.867188 78.910156 186.085938 80.054688 192.105469 C 80.792969 196.132812 81.78125 200.066406 83 203.894531 C 83.011719 203.957031 83.039062 204.011719 83.050781 204.0625 C 83.753906 206.269531 84.53125 208.449219 85.375 210.578125 C 85.386719 210.617188 85.402344 210.644531 85.425781 210.683594 C 85.933594 211.96875 86.464844 213.238281 87.035156 214.484375 C 87.0625 214.550781 87.089844 214.617188 87.113281 214.679688 C 88.59375 217.988281 90.253906 221.195312 92.074219 224.285156 L 92.074219 224.296875 C 93.890625 227.375 95.851562 230.347656 97.964844 233.203125 C 97.964844 233.214844 97.964844 233.214844 97.980469 233.230469 C 100.054688 236.046875 102.289062 238.746094 104.636719 241.316406 C 123.019531 261.421875 149.472656 274.039062 178.859375 274.039062 C 217.28125 274.039062 250.667969 252.492188 267.566406 220.820312 C 269.464844 217.289062 271.152344 213.628906 272.617188 209.851562 L 259.921875 209.851562 C 259.625 210.511719 259.3125 211.175781 259 211.824219 "/>
<path fill-rule="nonzero" fill="rgb(63.922119%, 72.549438%, 44.313049%)" fill-opacity="1" d="M 206.9375 211.550781 C 199.394531 217.144531 190.140625 220.535156 180.121094 220.792969 C 179.703125 220.820312 179.277344 220.820312 178.859375 220.820312 C 163.632812 220.820312 150.058594 213.589844 141.410156 202.375 C 139.203125 199.53125 137.324219 196.441406 135.816406 193.144531 L 135.816406 193.121094 C 134.167969 189.539062 132.960938 185.734375 132.261719 181.734375 L 132.261719 181.722656 C 131.792969 179.0625 131.546875 176.324219 131.546875 173.519531 C 131.546875 171.363281 131.6875 169.25 131.976562 167.171875 C 131.988281 167.070312 132 166.953125 132.015625 166.847656 C 132.609375 162.617188 133.777344 158.566406 135.425781 154.777344 C 142.695312 137.992188 159.429688 126.21875 178.859375 126.21875 C 189.035156 126.21875 198.488281 129.449219 206.210938 134.941406 C 207.066406 135.550781 207.910156 136.199219 208.714844 136.863281 C 211.894531 139.445312 214.722656 142.445312 217.140625 145.753906 C 219.578125 149.101562 221.589844 152.789062 223.070312 156.722656 L 235.402344 156.722656 C 234.261719 152.894531 232.742188 149.21875 230.886719 145.753906 C 220.941406 127.191406 201.355469 114.535156 178.859375 114.535156 C 165.308594 114.535156 152.820312 119.117188 142.851562 126.828125 C 131.25 135.785156 123.070312 148.960938 120.628906 164.03125 C 120.617188 164.121094 120.589844 164.226562 120.578125 164.328125 C 120.109375 167.328125 119.863281 170.390625 119.863281 173.519531 C 119.863281 175.503906 119.96875 177.464844 120.164062 179.398438 C 120.164062 179.476562 120.175781 179.566406 120.1875 179.644531 C 120.617188 183.839844 121.488281 187.902344 122.757812 191.78125 L 122.773438 191.796875 C 123.941406 195.40625 125.457031 198.871094 127.300781 202.140625 L 127.300781 202.15625 L 127.316406 202.167969 C 129.042969 205.28125 131.054688 208.230469 133.300781 210.96875 C 144.136719 224.105469 160.542969 232.5 178.859375 232.5 C 192.035156 232.5 204.222656 228.167969 214.050781 220.820312 C 217.644531 218.144531 220.929688 215.070312 223.824219 211.644531 C 224.332031 211.058594 224.808594 210.460938 225.277344 209.851562 L 209.105469 209.851562 C 208.390625 210.4375 207.675781 211.007812 206.9375 211.550781 "/>
<path fill-rule="nonzero" fill="rgb(63.922119%, 72.549438%, 44.313049%)" fill-opacity="1" d="M 257.34375 203.703125 L 195.878906 203.382812 L 184.019531 203.320312 L 153.292969 158.519531 L 153.28125 158.507812 L 211.25 158.507812 Z M 257.34375 203.703125 "/>
<path fill-rule="nonzero" fill="rgb(30.587769%, 30.195618%, 30.587769%)" fill-opacity="1" d="M 205.625 178.15625 L 193.695312 178.023438 L 193.695312 144.265625 L 205.742188 144.265625 Z M 205.625 178.15625 "/>
<path fill-rule="nonzero" fill="rgb(30.587769%, 30.195618%, 30.587769%)" fill-opacity="1" d="M 193.699219 145.121094 L 193.699219 178.027344 L 186.507812 171.558594 L 186.605469 158.511719 L 186.699219 146.585938 L 186.710938 145.035156 Z M 193.699219 145.121094 "/>
<path fill-rule="nonzero" fill="rgb(63.922119%, 72.549438%, 44.313049%)" fill-opacity="1" d="M 208.300781 146.585938 L 184.722656 146.585938 L 184.722656 140.664062 L 208.300781 140.664062 Z M 208.300781 146.585938 "/>
<path fill-rule="nonzero" fill="rgb(63.922119%, 72.549438%, 44.313049%)" fill-opacity="1" d="M 193.699219 146.585938 L 184.722656 146.585938 L 184.722656 140.664062 L 193.699219 140.664062 Z M 193.699219 146.585938 "/>
<path fill-rule="nonzero" fill="rgb(30.587769%, 30.195618%, 30.587769%)" fill-opacity="1" d="M 195.664062 203.398438 L 183.949219 203.398438 L 153.289062 170.917969 L 147.433594 164.707031 L 153.289062 158.511719 L 159.144531 164.707031 Z M 195.664062 203.398438 "/>
<path fill-rule="nonzero" fill="rgb(30.587769%, 30.195618%, 30.587769%)" fill-opacity="1" d="M 159.140625 164.714844 L 158.222656 165.695312 L 153.277344 170.921875 L 153.179688 171.035156 L 147.332031 177.242188 L 145.65625 178.992188 L 145.65625 179.007812 L 138.402344 186.667969 L 135.433594 177.429688 L 135.746094 177.09375 L 145.453125 166.800781 L 147.429688 164.714844 L 151.527344 160.367188 L 153.277344 158.503906 L 153.289062 158.519531 Z M 159.140625 164.714844 "/>
<path fill-rule="nonzero" fill="rgb(63.922119%, 72.549438%, 44.313049%)" fill-opacity="1" d="M 277.976562 156.722656 L 223.070312 156.722656 C 221.589844 152.789062 219.578125 149.101562 217.140625 145.753906 L 275.484375 145.753906 C 276.523438 149.324219 277.355469 152.984375 277.976562 156.722656 "/>
<path fill-rule="nonzero" fill="rgb(63.922119%, 72.549438%, 44.313049%)" fill-opacity="1" d="M 272.617188 209.851562 C 271.148438 213.628906 269.464844 217.289062 267.566406 220.820312 L 180.117188 220.820312 L 180.117188 220.792969 C 190.140625 220.535156 199.394531 217.148438 206.9375 211.550781 C 207.675781 211.007812 208.390625 210.4375 209.105469 209.851562 Z M 272.617188 209.851562 "/>
</svg>
